<?xml version="1.0" encoding="utf-8"?>
<!-- Generator: Adobe Illustrator 22.0.1, SVG Export Plug-In . SVG Version: 6.00 Build 0)  -->
<!DOCTYPE svg PUBLIC "-//W3C//DTD SVG 1.1//EN" "http://www.w3.org/Graphics/SVG/1.1/DTD/svg11.dtd">
<svg version="1.1" id="レイヤー_1" xmlns="http://www.w3.org/2000/svg" xmlns:xlink="http://www.w3.org/1999/xlink" x="0px"
	 y="0px" viewBox="0 0 56.2 57.7" style="enable-background:new 0 0 56.2 57.7;" xml:space="preserve">
<g>
	<circle cx="12" cy="4" r="4"/>
	<circle cx="28.1" cy="4" r="4"/>
	<circle cx="44.1" cy="4" r="4"/>
	<g>
		<path d="M43.6,45.2h-6.3h-2c3.5,0,6.3,2.8,6.3,6.3c0,3.5-2.8,6.3-6.3,6.3h8.3c6.9,0,12.5-5.6,12.5-12.5h-6.3H43.6z"/>
		<path d="M29.1,51.5C29.1,51.5,29.1,51.5,29.1,51.5c0,3.5,2.8,6.3,6.3,6.3V45.2C31.9,45.2,29.1,48,29.1,51.5z"/>
		<path d="M41.6,38.9V19.2c0-0.6,0.4-1,1-1s1,0.4,1,1v19.8c0,3.5,2.8,6.3,6.3,6.3c3.5,0,6.3-2.8,6.3-6.3l0-24.7V9.8c0-2.2-1.8-4-4-4
			s-4,1.8-4,4h0c0,2.2-1.8,4-4,4c-2.2,0-4-1.8-4-4h0c0-2.2-1.8-4-4-4s-4,1.8-4,4h0c0,2.2-1.8,4-4,4s-4-1.8-4-4h0c0-2.2-1.8-4-4-4
			c-2.2,0-4,1.8-4,4h0c0,2.2-1.8,4-4,4s-4-1.8-4-4s-1.8-4-4-4s-4,1.8-4,4v35.4c0,3.5,2.8,6.3,6.3,6.3c3.5,0,6.3-2.8,6.3-6.3V19.2
			c0-0.6,0.4-1,1-1s1,0.4,1,1v26.1c0,3.5,2.8,6.3,6.3,6.3c3.5,0,6.3-2.8,6.3-6.3V19.2c0-0.6,0.4-1,1-1s1,0.4,1,1v19.8
			c0,3.5,2.8,6.3,6.3,6.3C38.8,45.2,41.6,42.4,41.6,38.9z"/>
	</g>
</g>
</svg>
