<?xml version="1.0" encoding="utf-8"?>
<!-- Generator: Adobe Illustrator 22.0.1, SVG Export Plug-In . SVG Version: 6.00 Build 0)  -->
<!DOCTYPE svg PUBLIC "-//W3C//DTD SVG 1.1//EN" "http://www.w3.org/Graphics/SVG/1.1/DTD/svg11.dtd">
<svg version="1.1" id="レイヤー_1" xmlns="http://www.w3.org/2000/svg" xmlns:xlink="http://www.w3.org/1999/xlink" x="0px"
	 y="0px" viewBox="0 0 57.3 57.3" style="enable-background:new 0 0 57.3 57.3;" xml:space="preserve">
<g>
	<path d="M0,44h11.1c0.9,0,1.7,0.7,1.7,1.7v1.6c0,1,0.7,1.9,1.6,2.2l13.7,4.5c1.5,0.5,3.1-0.6,3.1-2.3v-1.1c0-5.1,4.1-9.2,9.2-9.2
		H45l0,0c0-1.3-1-2.3-2.3-2.3h-2.3c-5.8,0-10.5-4.7-10.5-10.5v0h17.3c5.6,0,10.1,4.5,10.1,10.1v3.9c0,8.1-6.6,14.7-14.7,14.7H2.7
		c-1.5,0-2.7-1.2-2.7-2.7v0c0-1,0.4-2,1.1-2.7l1.4-1.5c1.1-1.1,1-2.9-0.1-4L0,44z"/>
	<path d="M0.1,28.7v9.9c0,2.2,1.8,4,4,4h7.1c1.9,0,3.5-1.3,3.8-3.1l0.9-4.5c0.1-0.3,0.5-0.2,0.5,0v12.4c0,0.8,0.5,1.5,1.3,1.7
		l8.8,2.6c0.9,0.3,1.7-0.4,1.7-1.3V32.6c0-0.9-0.6-1.7-1.5-1.9l-7.7-1.9c-2.1-0.5-4.2,0.8-4.7,2.9l-1.1,5c-0.1,0.3-0.5,0.2-0.5-0.1
		v-3c0-1-0.7-1.9-1.7-2.1L0.1,28.7z"/>
	<path d="M28.3,27.2v-18C28.3,4.1,24.1,0,19,0h0c-5.1,0-9.3,4.1-9.3,9.3v0c0,9.9,8,18,18,18H28.3z"/>
	<path d="M30,7v3c0,3.9,3.1,7,7,7h2c0.5,0,0.9,0.4,0.9,0.9V23c0,0.4,0.2,0.7,0.6,0.8l9,3.4c0.4,0.2,0.8-0.1,0.8-0.6V7
		c0-3.9-3.1-7-7-7H37C33.1,0,30,3.1,30,7z"/>
</g>
</svg>
